<svg width="96" height="96" xmlns="http://www.w3.org/2000/svg" xmlns:xlink="http://www.w3.org/1999/xlink" xml:space="preserve" overflow="hidden"><g><path d="M14.9982 20.0081 12.9982 20.0081 12.9982 66.0203 83.0015 66.0203 83.0015 20.0081 14.9982 20.0081ZM81.0015 64.0203 14.9982 64.0203 14.9982 22.0081 81.0015 22.0081Z" stroke="#FFD865" fill="#FFD966"/><path d="M84.0016 15.0063 11.9981 15.0063C9.79132 15.0131 8.00417 16.8006 7.9979 19.0073L7.9979 67.0208C8.00406 69.2276 9.79123 71.0153 11.9981 71.022L40.9975 71.022 40.9975 81.0254 29.9989 81.0254 29.9989 83.0254 66.0009 83.0254 66.0009 81.0254 54.9975 81.0254 54.9975 71.022 84.0016 71.022C86.2085 71.0153 87.9956 69.2276 88.0018 67.0208L88.0018 19.0073C87.9955 16.8006 86.2084 15.0131 84.0016 15.0064ZM52.9975 81.0254 42.9975 81.0254 42.9975 71.022 52.9975 71.022ZM86.0018 67.0208C86.0009 68.1252 85.1061 69.0205 84.0016 69.022L11.9981 69.022C10.8936 69.0205 9.99883 68.1252 9.9979 67.0208L9.9979 19.0073C9.99894 17.9029 10.8937 17.0078 11.9981 17.0063L84.0016 17.0063C85.106 17.0078 86.0008 17.903 86.0018 19.0073Z" stroke="#FFD865" fill="#FFD966"/><path d="M50.616 42.9988C50.616 44.4895 49.4075 45.698 47.9168 45.698 46.4261 45.698 45.2176 44.4895 45.2176 42.9988 45.2176 41.5081 46.4261 40.2996 47.9168 40.2996 49.4075 40.2996 50.616 41.5081 50.616 42.9988Z" stroke="#FFD865" fill="#FFD966"/><path d="M32.5804 51.9539C33.345 53.2588 35.0541 53.8887 37.3927 53.8887 38.9558 53.855 40.5099 53.6437 42.0252 53.2588 43.3294 57.9387 45.4882 60.9988 47.9169 60.9988 50.3455 60.9988 52.5493 57.9387 53.8086 53.2588 55.3929 53.6928 57.0238 53.9345 58.6659 53.9788 61.0046 53.9788 62.7136 53.3487 63.4782 52.044 64.6925 49.9287 63.1634 46.5987 59.8352 43.1787 63.3882 39.6238 65.0073 36.1587 63.748 33.9988 62.9835 32.6939 61.2744 32.0638 58.9357 32.0638 57.2163 32.1045 55.5088 32.3616 53.8536 32.8289 52.5493 28.1038 50.3905 24.9988 47.9169 24.9988 45.4882 24.9988 43.2845 28.0589 42.0252 32.7388 40.4408 32.3048 38.81 32.0631 37.1679 32.0188 34.8292 32.0188 33.1202 32.6489 32.3556 33.9539 31.0962 36.1138 32.7604 39.5789 36.2234 43.0889 32.8952 46.5088 31.3661 49.8389 32.5804 51.9539ZM61.949 51.0989C61.5443 51.7739 60.3749 52.1338 58.7108 52.1338 57.2215 52.1046 55.7413 51.893 54.3033 51.5039 54.5921 50.0916 54.8023 48.6643 54.933 47.2287 56.2088 46.3493 57.4258 45.3873 58.5759 44.3489 61.4543 47.3189 62.6236 49.9287 61.949 51.0989ZM55.0678 41.2888C55.8774 41.9187 56.597 42.5039 57.2716 43.1338 56.597 43.7188 55.8774 44.3489 55.0678 44.9338 55.1129 44.3037 55.1129 43.6738 55.1129 43.0437 55.1128 42.4138 55.1128 41.8289 55.0678 41.2888ZM58.9357 33.8638C60.5998 33.8638 61.8141 34.2688 62.1739 34.899 62.8485 36.0689 61.6342 38.8138 58.5759 41.8738 57.4268 40.8203 56.2099 39.8432 54.933 38.9488 54.8064 37.4655 54.581 35.9922 54.2584 34.5389 55.7831 34.1189 57.3545 33.8921 58.9357 33.8638ZM42.8797 48.3538C43.3745 48.6687 43.8242 48.9388 44.3639 49.2539 44.8586 49.5239 45.3983 49.839 45.938 50.109 45.0385 50.4688 44.184 50.7837 43.3295 51.0538 43.1495 50.1987 43.0146 49.2988 42.8797 48.3538ZM47.9169 59.1988C46.5676 59.1988 44.8586 56.859 43.7343 52.8089 45.2042 52.3373 46.6458 51.7814 48.0518 51.1439 49.3677 51.751 50.7194 52.277 52.0996 52.7189 50.9751 56.8589 49.2661 59.1987 47.9169 59.1987ZM52.5493 51.0089C51.7847 50.7389 50.9752 50.4689 50.1657 50.109 50.7053 49.839 51.2451 49.524 51.7847 49.2088 52.1895 48.984 52.5943 48.7588 52.9541 48.5338 52.8191 49.3887 52.6842 50.2436 52.5493 51.0088ZM52.9991 37.6439C52.5043 37.3289 52.0546 37.0589 51.5149 36.7437 51.0651 36.5189 50.6154 36.2488 50.1207 35.9788 50.9302 35.6187 51.7397 35.3489 52.5493 35.0789 52.7292 35.8887 52.8641 36.7436 52.9991 37.6438ZM47.9169 26.7989C49.2661 26.7989 51.0201 29.1839 52.1445 33.3238 50.8403 33.774 49.446 34.3138 48.0518 34.9439 46.6463 34.2924 45.2047 33.7215 43.7343 33.2339 44.8586 29.1387 46.5676 26.7988 47.9169 26.7988ZM43.2845 34.9888C44.139 35.2588 45.0385 35.6187 45.938 35.9788 45.4882 36.2039 44.9935 36.4737 44.5438 36.7437 44.0041 37.1038 43.4194 37.4639 42.8348 37.8238 42.9696 36.8337 43.1045 35.8887 43.2845 34.9888ZM42.6099 40.1187C43.5093 39.4888 44.4538 38.9038 45.4882 38.3189 46.3428 37.8238 47.1973 37.3737 48.0518 36.9688 48.9063 37.3738 49.7608 37.8238 50.6154 38.3189 51.5149 38.8589 52.4144 39.399 53.2239 39.9388 53.3139 40.9287 53.3139 41.9188 53.3139 42.9988 53.3139 44.1238 53.269 45.2038 53.179 46.2388 52.4594 46.7339 51.6948 47.1839 50.8853 47.6787 49.9408 48.2188 48.9963 48.7138 48.0519 49.1639 47.1074 48.7139 46.1629 48.2189 45.2184 47.6787 44.319 47.1387 43.4195 46.5987 42.6099 46.0589 42.5199 45.0689 42.5199 44.0789 42.5199 42.9988 42.5199 42.0088 42.5649 41.0637 42.6098 40.1186ZM37.3928 52.1338C35.7287 52.1338 34.5144 51.7288 34.1546 51.0989 33.48 49.9287 34.6493 47.3189 37.5277 44.3489 38.5621 45.2488 39.6865 46.1488 40.9008 47.0489 41.0242 48.5624 41.2496 50.0658 41.5755 51.5489 40.2129 51.9267 38.8066 52.1233 37.3927 52.1338ZM40.7659 44.7088C40.0938 44.2025 39.4483 43.6618 38.832 43.089 39.4166 42.549 40.0913 42.0089 40.7659 41.4688 40.7659 41.964 40.7209 42.4588 40.7209 42.9988 40.7209 43.5837 40.7209 44.1687 40.7659 44.7087ZM33.8847 34.899C34.2895 34.224 35.4589 33.8638 37.1229 33.8638 38.6121 33.8961 40.0919 34.1076 41.5305 34.4937 41.2049 36.0225 40.9795 37.5709 40.8558 39.129 39.668 39.9631 38.5408 40.8803 37.4827 41.8739 34.4694 38.8137 33.2101 36.0689 33.8847 34.8989Z" stroke="#FFD865" fill="#FFD966"/></g></svg>