<svg width="192" height="192" xmlns="http://www.w3.org/2000/svg" xmlns:xlink="http://www.w3.org/1999/xlink" xml:space="preserve" overflow="hidden"><g><path d="M154 123.961 154.008 51.9766 38.002 51.9766 38.002 123.997ZM42.002 55.9766 150.008 55.9766 150 119.962 42.002 119.995Z" stroke="#FFD966" stroke-width="2" fill="#FFD966"/><path d="M32.002 49.9732C32.0046 47.7652 33.794 45.9758 36.002 45.9732L156.008 45.9732C158.216 45.976 160.005 47.7652 160.008 49.9732L160.008 132 164.008 132 164.008 49.9732C164.003 45.5568 160.424 41.9778 156.008 41.9732L36.002 41.9732C31.5856 41.9778 28.0066 45.5568 28.002 49.9732L28.002 132 32.002 132Z" stroke="#FFD966" stroke-width="2" fill="#FFD966"/><path d="M106.006 137.962 106.006 141.962 86.004 141.962 86.004 137.962 4 137.962 4 141.96C4.00584 147.481 8.47926 151.955 14 151.962L178.008 151.962C183.529 151.956 188.004 147.481 188.01 141.96L188.01 137.962ZM178.008 147.962 14 147.962C10.6881 147.958 8.0043 145.274 8 141.962L82.004 141.962C81.9302 144.097 83.6016 145.888 85.737 145.962 85.826 145.965 85.915 145.965 86.004 145.962L106.006 145.962C108.141 146.036 109.932 144.364 110.006 142.229 110.009 142.14 110.009 142.051 110.006 141.962L184.01 141.962C184.005 145.274 181.32 147.958 178.008 147.962Z" stroke="#FFD966" stroke-width="2" fill="#FFD966"/><path d="M96 62C81.6406 62 70 73.6406 70 88 70 102.359 81.6406 114 96 114 110.359 114 122 102.359 122 88 121.984 73.6474 110.353 62.0164 96 62ZM117.899 86 110.862 86C110.585 78.8328 107.6 72.0372 102.51 66.9844 111.008 69.6346 117.079 77.1358 117.899 86ZM94 68.4512 94 86 85.1484 86C85.6562 78.4576 89.0066 71.88 94 68.4512ZM94 90 94 107.551C89.0122 104.117 85.66 97.517 85.15 90ZM98 107.547 98 90 106.85 90C106.34 97.5088 102.985 104.111 98 107.547ZM98 86 98 68.4542C102.985 71.8902 106.34 78.4916 106.85 86ZM89.4534 66.9952C84.372 72.0464 81.3998 78.8398 81.1386 86L74.1014 86C74.92 77.1496 80.973 69.6564 89.4534 66.9952ZM74.1014 90 81.1382 90C81.4114 97.166 84.3938 103.961 89.483 109.014 80.9882 106.361 74.9212 98.8614 74.1014 90ZM102.512 109.015C107.601 103.962 110.585 97.1668 110.862 90L117.899 90C117.079 98.8634 111.009 106.364 102.512 109.015Z" stroke="#FFD966" stroke-width="2" fill="#FFD966"/></g></svg>